<?xml version="1.0" encoding="UTF-8" standalone="no"?>
<svg
   xmlns:dc="http://purl.org/dc/elements/1.1/"
   xmlns:cc="http://creativecommons.org/ns#"
   xmlns:rdf="http://www.w3.org/1999/02/22-rdf-syntax-ns#"
   xmlns:svg="http://www.w3.org/2000/svg"
   xmlns="http://www.w3.org/2000/svg"
   viewBox="0 0 252.008 120"
   height="120"
   width="252.008"
   xml:space="preserve"
   id="svg2"
   version="1.1"><metadata
     id="metadata8"><rdf:RDF><cc:Work
         rdf:about=""><dc:format>image/svg+xml</dc:format><dc:type
           rdf:resource="http://purl.org/dc/dcmitype/StillImage" /></cc:Work></rdf:RDF></metadata><defs
     id="defs6"><clipPath
       id="clipPath18"
       clipPathUnits="userSpaceOnUse"><path
         id="path16"
         d="M 0,90 H 189.006 V 0 H 0 Z" /></clipPath></defs><g
     transform="matrix(1.3333333,0,0,-1.3333333,0,120)"
     id="g10"><g
       id="g12"><g
         clip-path="url(#clipPath18)"
         id="g14"><g
           transform="translate(22.99,39.2886)"
           id="g20"><path
             id="path22"
             style="fill:#020b19;fill-opacity:1;fill-rule:nonzero;stroke:none"
             d="m 0,0 c -3.083,0 -5.409,2.441 -5.409,5.679 0,3.169 2.376,5.652 5.409,5.652 3.053,0 5.355,-2.43 5.355,-5.652 C 5.355,2.441 3.053,0 0,0 m -0.027,14.606 c -5.227,0 -9.169,-3.838 -9.169,-8.927 0,-5.105 3.942,-8.954 9.169,-8.954 5.228,0 9.17,3.849 9.17,8.954 0,5.089 -3.942,8.927 -9.17,8.927" /></g><g
           transform="translate(55.4438,36.3104)"
           id="g24"><path
             id="path26"
             style="fill:#020b19;fill-opacity:1;fill-rule:nonzero;stroke:none"
             d="M 0,0 V 17.314 H -3.149 L -5.875,13.439 C -6.872,12.011 -9.028,8.938 -9.028,8.938 l -0.061,-0.087 -0.06,0.088 c -0.022,0.031 -2.141,3.115 -3.152,4.526 l -2.728,3.849 h -3.148 V 0 h 3.625 v 11.243 l 0.137,-0.231 c 0.007,-0.011 0.683,-1.144 1.56,-2.393 l 3.766,-5.358 3.739,5.331 c 0.905,1.303 1.581,2.41 1.588,2.421 l 0.136,0.224 V 0 Z" /></g><g
           transform="translate(69.0466,39.3966)"
           id="g28"><path
             id="path30"
             style="fill:#020b19;fill-opacity:1;fill-rule:nonzero;stroke:none"
             d="M 0,0 H -3.145 V 11.142 H 0 c 3.312,0 5.625,-2.291 5.625,-5.571 C 5.625,2.291 3.312,0 0,0 M 0.162,14.228 H -6.771 V -3.086 h 6.933 c 5.376,0 9.278,3.641 9.278,8.657 0,5.016 -3.902,8.657 -9.278,8.657" /></g><g
           transform="translate(96.2727,41.3561)"
           id="g32"><path
             id="path34"
             style="fill:#020b19;fill-opacity:1;fill-rule:nonzero;stroke:none"
             d="m 0,0 c 0,3.493 -3.25,4.736 -6.761,5.561 -1.728,0.405 -3.048,0.81 -3.048,2.012 0,1.38 1.776,1.744 2.714,1.744 1.806,0 3.617,-0.498 4.982,-1.367 l 1.311,2.776 c -1.889,1.236 -3.891,1.812 -6.293,1.812 -3.196,0 -6.421,-1.535 -6.421,-4.965 0,-3.604 3.393,-4.69 6.573,-5.426 l 0.11,-0.028 C -5.335,1.753 -3.787,1.373 -3.787,0 c 0,-1.028 -1.16,-2.121 -3.308,-2.121 -2.721,0 -4.416,0.939 -5.71,1.875 l -1.312,-2.778 c 0.962,-0.775 2.936,-2.319 7.022,-2.319 C -3.563,-5.343 0,-3.691 0,0" /></g><g
           transform="translate(45.9033,30.4764)"
           id="g36"><path
             id="path38"
             style="fill:#f23e17;fill-opacity:1;fill-rule:nonzero;stroke:none"
             d="m 0,0 c -3.882,-4.138 -9.381,-6.742 -15.49,-6.742 -11.725,0 -21.264,9.54 -21.264,21.266 0,11.726 9.539,21.267 21.264,21.267 6.11,0 11.61,-2.605 15.492,-6.745 h 1.991 c -4.175,5.018 -10.461,8.22 -17.483,8.22 -12.538,0 -22.739,-10.202 -22.739,-22.742 0,-12.54 10.201,-22.741 22.739,-22.741 7.021,0 13.306,3.201 17.481,8.217 z" /></g><g
           transform="translate(66.6499,30.4764)"
           id="g40"><path
             id="path42"
             style="fill:#f23e17;fill-opacity:1;fill-rule:nonzero;stroke:none"
             d="m 0,0 c -5.334,-10.587 -16.301,-17.871 -28.943,-17.871 -17.862,0 -32.395,14.532 -32.395,32.395 0,17.863 14.533,32.395 32.395,32.395 12.642,0 23.61,-7.284 28.944,-17.873 h 1.648 c -5.447,11.43 -17.111,19.349 -30.592,19.349 -18.676,0 -33.87,-15.195 -33.87,-33.871 0,-18.676 15.194,-33.871 33.87,-33.871 13.48,0 25.144,7.918 30.592,19.347 z" /></g><g
           transform="translate(86.0237,30.4764)"
           id="g44"><path
             id="path46"
             style="fill:#f23e17;fill-opacity:1;fill-rule:nonzero;stroke:none"
             d="m 0,0 c -5.993,-16.878 -22.116,-29.001 -41.024,-29.001 -24,0 -43.524,19.525 -43.524,43.525 0,23.999 19.524,43.524 43.524,43.524 18.909,0 35.031,-12.123 41.024,-29.002 h 1.558 c -6.056,17.706 -22.85,30.478 -42.582,30.478 -24.813,0 -45,-20.187 -45,-45 0,-24.814 20.187,-45 45,-45 19.732,0 36.526,12.77 42.582,30.476 z" /></g><g
           transform="translate(109.3774,48.1284)"
           id="g48"><path
             id="path50"
             style="fill:#4e545e;fill-opacity:1;fill-rule:nonzero;stroke:none"
             d="m 0,0 c -1.195,0 -2.131,0.971 -2.131,2.21 0,1.24 0.936,2.21 2.131,2.21 1.184,0 2.111,-0.97 2.111,-2.21 C 2.111,0.971 1.184,0 0,0 m -0.01,5.619 c -1.95,0 -3.478,-1.497 -3.478,-3.409 0,-1.943 1.495,-3.408 3.478,-3.408 1.983,0 3.478,1.465 3.478,3.408 0,1.912 -1.528,3.409 -3.478,3.409" /></g><g
           transform="translate(116.1257,47.0303)"
           id="g52"><path
             id="path54"
             style="fill:#4e545e;fill-opacity:1;fill-rule:nonzero;stroke:none"
             d="M 0,0 H 1.308 V 5.469 H 3.583 V 6.617 H -2.275 V 5.469 H 0 Z" /></g><path
           id="path56"
           style="fill:#4e545e;fill-opacity:1;fill-rule:nonzero;stroke:none"
           d="m 122.97,53.647 h -1.308 V 47.03 h 1.308 z" /><g
           transform="translate(129.9087,49.8936)"
           id="g58"><path
             id="path60"
             style="fill:#4e545e;fill-opacity:1;fill-rule:nonzero;stroke:none"
             d="M 0,0 1.545,-1.526 C 1.259,-1.689 0.948,-1.775 0.639,-1.775 c -0.667,0 -1.133,0.383 -1.133,0.933 0,0.328 0.175,0.625 0.494,0.842 m 2.438,-2.357 0.687,-0.666 0.793,0.804 -0.686,0.685 c 0.247,0.347 0.415,0.954 0.415,1.51 V 0.051 H 2.449 v -0.075 c 0,-0.31 -0.064,-0.501 -0.13,-0.626 L 1.121,0.558 C 0.479,1.21 0.204,1.666 0.204,2.082 c 0,0.361 0.271,0.623 0.644,0.623 0.338,0 0.651,-0.298 0.818,-0.778 L 1.697,1.838 2.74,2.502 2.713,2.562 c -0.39,0.869 -1.006,1.292 -1.885,1.292 -1.255,0 -1.911,-0.892 -1.911,-1.772 0,-0.385 0.122,-0.766 0.381,-1.195 -0.674,-0.447 -1.059,-1.098 -1.059,-1.799 0,-1.417 1.15,-2.051 2.29,-2.051 0.685,0 1.377,0.22 1.909,0.606" /></g><g
           transform="translate(143.4163,52.3477)"
           id="g62"><path
             id="path64"
             style="fill:#4e545e;fill-opacity:1;fill-rule:nonzero;stroke:none"
             d="m 0,0 c -0.383,-0.544 -1.17,-1.659 -1.396,-1.979 -0.225,0.322 -1.017,1.449 -1.406,1.99 l -0.92,1.288 h -1.122 v -6.616 h 1.308 v 4.295 c 0.103,-0.167 0.262,-0.415 0.472,-0.721 l 1.668,-2.383 1.649,2.364 c 0.219,0.318 0.379,0.57 0.482,0.737 V -5.317 H 2.042 V 1.299 H 0.92 Z" /></g><g
           transform="translate(152.0022,49.2163)"
           id="g66"><path
             id="path68"
             style="fill:#4e545e;fill-opacity:1;fill-rule:nonzero;stroke:none"
             d="m 0,0 h -2.524 l 0.692,1.571 c 0.21,0.471 0.454,1.057 0.571,1.341 0.118,-0.285 0.365,-0.876 0.569,-1.341 z m -0.665,4.431 h -1.194 l -2.982,-6.617 h 1.342 l 0.509,1.118 h 3.456 l 0.509,-1.118 h 1.341 l -2.961,6.572 z" /></g><g
           transform="translate(160.3821,51.0972)"
           id="g70"><path
             id="path72"
             style="fill:#4e545e;fill-opacity:1;fill-rule:nonzero;stroke:none"
             d="m 0,0 c 0,-0.793 -0.646,-1.392 -1.502,-1.392 h -1.551 v 2.804 h 1.562 C -0.641,1.412 0,0.805 0,0 m 1.368,0 c 0,1.525 -1.173,2.55 -2.92,2.55 h -2.809 v -6.617 h 1.308 v 1.527 h 1.392 c 0.172,0 0.36,0.015 0.545,0.043 l 1.123,-1.57 H 1.543 L 0.08,-2.123 C 0.876,-1.706 1.368,-0.901 1.368,0" /></g><path
           id="path74"
           style="fill:#4e545e;fill-opacity:1;fill-rule:nonzero;stroke:none"
           d="m 165.38,53.647 h -1.308 V 47.03 h 1.308 z" /><g
           transform="translate(173.5818,49.6802)"
           id="g76"><path
             id="path78"
             style="fill:#4e545e;fill-opacity:1;fill-rule:nonzero;stroke:none"
             d="M 0,0 V 3.967 H -1.308 V 0.06 c 0,-1.018 -0.551,-1.602 -1.511,-1.602 -0.967,0 -1.522,0.584 -1.522,1.602 V 3.967 H -5.648 V 0 c 0,-1.696 1.084,-2.75 2.829,-2.75 C -1.08,-2.75 0,-1.696 0,0" /></g><g
           transform="translate(178.2527,51.0503)"
           id="g80"><path
             id="path82"
             style="fill:#4e545e;fill-opacity:1;fill-rule:nonzero;stroke:none"
             d="m 0,0 c -0.785,0.191 -1.3,0.351 -1.3,0.805 0,0.569 0.789,0.694 1.093,0.694 0.659,0 1.249,-0.173 1.805,-0.527 L 1.668,0.927 2.184,1.948 2.13,1.985 C 1.413,2.47 0.67,2.697 -0.207,2.697 c -1.166,0 -2.42,-0.595 -2.42,-1.902 0,-1.326 1.221,-1.724 2.472,-2.019 0.719,-0.174 1.27,-0.348 1.27,-0.855 0,-0.547 -0.681,-0.843 -1.322,-0.843 -0.819,0 -1.466,0.229 -2.098,0.742 l -0.072,0.058 -0.518,-1.011 0.042,-0.038 c 0.686,-0.639 1.548,-0.949 2.635,-0.949 1.296,0 2.69,0.639 2.69,2.041 C 2.472,-0.761 1.222,-0.288 0,0" /></g><g
           transform="translate(107.4465,41.6724)"
           id="g84"><path
             id="path86"
             style="fill:#4e545e;fill-opacity:1;fill-rule:nonzero;stroke:none"
             d="m 0,0 h 1.252 c 1.296,0 2.201,-0.889 2.201,-2.161 0,-1.272 -0.905,-2.16 -2.201,-2.16 H 0 Z m 1.302,1.148 h -2.61 v -6.617 h 2.61 c 2.033,0 3.508,1.391 3.508,3.308 0,1.917 -1.475,3.309 -3.508,3.309" /></g><g
           transform="translate(118.2517,38.3896)"
           id="g88"><path
             id="path90"
             style="fill:#4e545e;fill-opacity:1;fill-rule:nonzero;stroke:none"
             d="m 0,0 h -2.524 l 0.692,1.571 c 0.21,0.471 0.454,1.057 0.571,1.341 0.118,-0.285 0.365,-0.876 0.569,-1.341 z m -0.665,4.431 h -1.194 l -2.982,-6.617 h 1.342 l 0.509,1.118 h 3.456 l 0.509,-1.118 h 1.341 l -2.961,6.572 z" /></g><g
           transform="translate(126.8518,38.3149)"
           id="g92"><path
             id="path94"
             style="fill:#4e545e;fill-opacity:1;fill-rule:nonzero;stroke:none"
             d="M 0,0 C -0.189,0.31 -0.539,0.871 -0.853,1.301 L -3.19,4.505 h -1.291 v -6.616 h 1.308 v 4.466 c 0.192,-0.313 0.559,-0.896 0.942,-1.422 l 2.228,-3.044 h 1.31 V 4.505 H 0 Z" /></g><g
           transform="translate(135.2444,37.9189)"
           id="g96"><path
             id="path98"
             style="fill:#4e545e;fill-opacity:1;fill-rule:nonzero;stroke:none"
             d="m 0,0 c -0.408,-0.398 -0.967,-0.617 -1.574,-0.617 -1.195,0 -2.131,0.975 -2.131,2.22 0,1.254 0.946,2.2 2.201,2.2 0.517,0 0.969,-0.155 1.381,-0.473 L -0.066,3.286 0.698,4.176 0.64,4.225 c -0.594,0.501 -1.384,0.776 -2.224,0.776 -1.95,0 -3.478,-1.493 -3.478,-3.398 0,-1.916 1.528,-3.418 3.478,-3.418 0.906,0 1.757,0.322 2.396,0.908 l 0.054,0.05 -0.81,0.912 z" /></g><g
           transform="translate(139.3616,39.1074)"
           id="g100"><path
             id="path102"
             style="fill:#4e545e;fill-opacity:1;fill-rule:nonzero;stroke:none"
             d="M 0,0 H 3.643 V 1.138 H 0 v 1.427 h 3.862 v 1.148 h -5.17 v -6.617 h 5.309 v 1.148 H 0 Z" /></g><g
           transform="translate(151.0369,40.2236)"
           id="g104"><path
             id="path106"
             style="fill:#4e545e;fill-opacity:1;fill-rule:nonzero;stroke:none"
             d="m 0,0 c -0.785,0.191 -1.3,0.351 -1.3,0.805 0,0.569 0.789,0.694 1.093,0.694 0.659,0 1.249,-0.173 1.805,-0.528 L 1.668,0.927 2.184,1.948 2.13,1.985 C 1.413,2.47 0.67,2.696 -0.207,2.696 c -1.166,0 -2.42,-0.594 -2.42,-1.901 0,-1.326 1.221,-1.724 2.472,-2.019 0.719,-0.174 1.27,-0.348 1.27,-0.855 0,-0.547 -0.681,-0.843 -1.322,-0.843 -0.819,0 -1.466,0.229 -2.098,0.742 l -0.072,0.058 -0.518,-1.011 0.042,-0.039 c 0.686,-0.638 1.548,-0.948 2.635,-0.948 1.296,0 2.69,0.639 2.69,2.041 C 2.472,-0.761 1.222,-0.288 0,0" /></g><g
           transform="translate(154.8342,41.6724)"
           id="g108"><path
             id="path110"
             style="fill:#4e545e;fill-opacity:1;fill-rule:nonzero;stroke:none"
             d="M 0,0 H 2.275 V -5.469 H 3.583 V 0 H 5.858 V 1.148 H 0 Z" /></g><g
           transform="translate(166.8171,38.9131)"
           id="g112"><path
             id="path114"
             style="fill:#4e545e;fill-opacity:1;fill-rule:nonzero;stroke:none"
             d="m 0,0 c 0,-1.018 -0.551,-1.602 -1.511,-1.602 -0.968,0 -1.522,0.584 -1.522,1.602 V 3.907 H -4.341 V -0.06 c 0,-1.696 1.084,-2.749 2.83,-2.749 1.739,0 2.819,1.053 2.819,2.749 V 3.907 H 0 Z" /></g><g
           transform="translate(171.7849,41.6724)"
           id="g116"><path
             id="path118"
             style="fill:#4e545e;fill-opacity:1;fill-rule:nonzero;stroke:none"
             d="m 0,0 h 1.252 c 1.296,0 2.201,-0.889 2.201,-2.161 0,-1.272 -0.905,-2.16 -2.201,-2.16 H 0 Z m 1.302,1.148 h -2.61 v -6.617 h 2.61 c 2.033,0 3.508,1.391 3.508,3.308 0,1.917 -1.475,3.309 -3.508,3.309" /></g><path
           id="path120"
           style="fill:#4e545e;fill-opacity:1;fill-rule:nonzero;stroke:none"
           d="m 178.668,36.204 h 1.308 v 6.617 h -1.308 z" /><g
           transform="translate(185.5381,37.3018)"
           id="g122"><path
             id="path124"
             style="fill:#4e545e;fill-opacity:1;fill-rule:nonzero;stroke:none"
             d="m 0,0 c -1.195,0 -2.131,0.971 -2.131,2.21 0,1.24 0.936,2.21 2.131,2.21 1.184,0 2.111,-0.97 2.111,-2.21 C 2.111,0.971 1.184,0 0,0 m -0.01,5.618 c -1.95,0 -3.478,-1.497 -3.478,-3.408 0,-1.943 1.495,-3.408 3.478,-3.408 1.983,0 3.478,1.465 3.478,3.408 0,1.911 -1.528,3.408 -3.478,3.408" /></g></g></g></g></svg>